# xmcd
#
# Track frame offsets: 
#        150
#        15756
#        32131
#        50466
#        68647
#        80092
#        100044
#        120403
#        135224
#        154422
#        170391
#        187566
#        198569
#        223469
#
# Disc length: 3154 seconds
#
# Revision: 0
# Processed by: cddbd v1.5.2PL0 Copyright (c) Steve Scherf et al.
# Submitted via: ExactAudioCopy v0.99pb5
#
DISCID=b00c500e
DTITLE=Blue Merlot - Blue Merlot
DYEAR=2006
DGENRE=
TTITLE0=No deposit no return
TTITLE1=Big ovaries
TTITLE2=Turn me on
TTITLE3=Blue tarp city
TTITLE4=Martha's Blues
TTITLE5=Floatin' round New Orleans
TTITLE6=Furry Lisa's Stairway Bells
TTITLE7=I would rather go blind
TTITLE8=Rita Katrina Jones
TTITLE9=AA Cup blues
TTITLE10=Delete me
TTITLE11=Wild women don't have the blues
TTITLE12=Wall of water
TTITLE13=People get ready
EXTD=
EXTT0=
EXTT1=
EXTT2=
EXTT3=
EXTT4=
EXTT5=
EXTT6=
EXTT7=
EXTT8=
EXTT9=
EXTT10=
EXTT11=
EXTT12=
EXTT13=
PLAYORDER=
